HIERARCHY
ROOT hip
{
  OFFSET 44.7096 75.8532 24.4764
  CHANNELS 6 Xposition Yposition Zposition Zrotation Xrotation Yrotation
  JOINT abdomen
  {
    OFFSET 0 20.6881 -0.73152
    CHANNELS 3 Zrotation Xrotation Yrotation
    JOINT chest
    {
      OFFSET 0 11.7043 -0.48768
      CHANNELS 3 Zrotation Xrotation Yrotation
      JOINT neck
      {
        OFFSET 0 22.1894 -2.19456
        CHANNELS 3 Zrotation Xrotation Yrotation
        JOINT head
        {
          OFFSET -0.24384 7.07133 1.2192
          CHANNELS 3 Zrotation Xrotation Yrotation
          JOINT leftEye
          {
            OFFSET 4.14528 8.04674 8.04672
            CHANNELS 3 Zrotation Xrotation Yrotation
            End Site
            {
              OFFSET 1 0 0
            }
          }
          JOINT rightEye
          {
            OFFSET -3.6576 8.04674 8.04672
            CHANNELS 3 Zrotation Xrotation Yrotation
            End Site
            {
              OFFSET 1 0 0
            }
          }
        }
      }
      JOINT rCollar
      {
        OFFSET -2.68224 19.2634 -4.8768
        CHANNELS 3 Zrotation Xrotation Yrotation
        JOINT rShldr
        {
          OFFSET -8.77824 -1.95073 1.46304
          CHANNELS 3 Zrotation Xrotation Yrotation
          JOINT rForeArm
          {
            OFFSET -28.1742 -1.7115 0.48768
            CHANNELS 3 Zrotation Xrotation Yrotation
            JOINT rHand
            {
              OFFSET -22.5879 0.773209 7.07136
              CHANNELS 3 Zrotation Xrotation Yrotation
              JOINT rThumb1
              {
                OFFSET -1.2192 -0.487915 3.41376
                CHANNELS 3 Zrotation Xrotation Yrotation
                JOINT rThumb2
                {
                  OFFSET -3.37035 -0.52449 3.41376
                  CHANNELS 3 Zrotation Xrotation Yrotation
                  End Site
                  {
                    OFFSET -1.78271 -1.18214 1.43049
                  }
                }
              }
              JOINT rIndex1
              {
                OFFSET -7.75947 0.938293 5.60832
                CHANNELS 3 Zrotation Xrotation Yrotation
                JOINT rIndex2
                {
                  OFFSET -2.54057 -0.884171 1.56538
                  CHANNELS 3 Zrotation Xrotation Yrotation
                  End Site
                  {
                    OFFSET -1.62519 -0.234802 1.16502
                  }
                }
              }
              JOINT rMid1
              {
                OFFSET -8.24714 1.18213 3.41376
                CHANNELS 3 Zrotation Xrotation Yrotation
                JOINT rMid2
                {
                  OFFSET -3.10165 -0.590103 1.0647
                  CHANNELS 3 Zrotation Xrotation Yrotation
                  End Site
                  {
                    OFFSET -2.48547 -0.328903 0.83742
                  }
                }
              }
              JOINT rRing1
              {
                OFFSET -8.82822 0.546677 1.51678
                CHANNELS 3 Zrotation Xrotation Yrotation
                JOINT rRing2
                {
                  OFFSET -2.60934 -0.819778 -0.0198488
                  CHANNELS 3 Zrotation Xrotation Yrotation
                  End Site
                  {
                    OFFSET -2.33842 -0.294052 0.168128
                  }
                }
              }
              JOINT rPinky1
              {
                OFFSET -8.27202 -0.0477905 -0.4584
                CHANNELS 3 Zrotation Xrotation Yrotation
                JOINT rPinky2
                {
                  OFFSET -1.82734 -0.647385 -0.700984
                  CHANNELS 3 Zrotation Xrotation Yrotation
                  End Site
                  {
                    OFFSET -1.69225 -0.51767 -0.607171
                  }
                }
              }
            }
          }
        }
      }
      JOINT lCollar
      {
        OFFSET 2.68224 19.2634 -4.8768
        CHANNELS 3 Zrotation Xrotation Yrotation
        JOINT lShldr
        {
          OFFSET 8.77824 -1.95073 1.46304
          CHANNELS 3 Zrotation Xrotation Yrotation
          JOINT lForeArm
          {
            OFFSET 28.1742 -1.7115 0.48768
            CHANNELS 3 Zrotation Xrotation Yrotation
            JOINT lHand
            {
              OFFSET 22.5879 0.773209 7.07136
              CHANNELS 3 Zrotation Xrotation Yrotation
              JOINT lThumb1
              {
                OFFSET 1.2192 -0.487915 3.41376
                CHANNELS 3 Zrotation Xrotation Yrotation
                JOINT lThumb2
                {
                  OFFSET 3.37035 -0.52449 3.41376
                  CHANNELS 3 Zrotation Xrotation Yrotation
                  End Site
                  {
                    OFFSET 1.78271 -1.18214 1.43049
                  }
                }
              }
              JOINT lIndex1
              {
                OFFSET 7.75947 0.938293 5.60832
                CHANNELS 3 Zrotation Xrotation Yrotation
                JOINT lIndex2
                {
                  OFFSET 2.54057 -0.884171 1.56538
                  CHANNELS 3 Zrotation Xrotation Yrotation
                  End Site
                  {
                    OFFSET 1.62519 -0.234802 1.16502
                  }
                }
              }
              JOINT lMid1
              {
                OFFSET 8.24714 1.18213 3.41376
                CHANNELS 3 Zrotation Xrotation Yrotation
                JOINT lMid2
                {
                  OFFSET 3.10165 -0.590103 1.0647
                  CHANNELS 3 Zrotation Xrotation Yrotation
                  End Site
                  {
                    OFFSET 2.48547 -0.328903 0.83742
                  }
                }
              }
              JOINT lRing1
              {
                OFFSET 8.82822 0.546677 1.51678
                CHANNELS 3 Zrotation Xrotation Yrotation
                JOINT lRing2
                {
                  OFFSET 2.60934 -0.819778 -0.0198488
                  CHANNELS 3 Zrotation Xrotation Yrotation
                  End Site
                  {
                    OFFSET 2.33842 -0.294052 0.168128
                  }
                }
              }
              JOINT lPinky1
              {
                OFFSET 8.27202 -0.0477905 -0.4584
                CHANNELS 3 Zrotation Xrotation Yrotation
                JOINT lPinky2
                {
                  OFFSET 1.82734 -0.647385 -0.700984
                  CHANNELS 3 Zrotation Xrotation Yrotation
                  End Site
                  {
                    OFFSET 1.69225 -0.51767 -0.607171
                  }
                }
              }
            }
          }
        }
      }
    }
  }
  JOINT rButtock
  {
    OFFSET -8.77824 4.35084 1.2192
    CHANNELS 3 Zrotation Xrotation Yrotation
    JOINT rThigh
    {
      OFFSET 0 -1.70687 -2.19456
      CHANNELS 3 Zrotation Xrotation Yrotation
      JOINT rShin
      {
        OFFSET 0 -36.8199 0.73152
        CHANNELS 3 Zrotation Xrotation Yrotation
        JOINT rFoot
        {
          OFFSET 0.73152 -45.1104 -5.12064
          CHANNELS 3 Zrotation Xrotation Yrotation
          End Site
          {
            OFFSET -1.1221 -3.69964 12.103
          }
        }
      }
    }
  }
  JOINT lButtock
  {
    OFFSET 8.77824 4.35084 1.2192
    CHANNELS 3 Zrotation Xrotation Yrotation
    JOINT lThigh
    {
      OFFSET 0 -1.70687 -2.19456
      CHANNELS 3 Zrotation Xrotation Yrotation
      JOINT lShin
      {
        OFFSET 0 -36.8199 0.73152
        CHANNELS 3 Zrotation Xrotation Yrotation
        JOINT lFoot
        {
          OFFSET -0.73152 -45.1104 -5.12064
          CHANNELS 3 Zrotation Xrotation Yrotation
          End Site
          {
            OFFSET 1.1221 -3.69964 12.103
          }
        }
      }
    }
  }
}
MOTION
Frames:	7
Frame Time:	0.00833333
36.6297 36.4022 52.6235 -0.933509 -1.92353 132.847 13.7204 31.4661 15.5897 19.4365 -6.71598 4.43357 -0.864076 5.29774 1.75158 -10.3213 -48.5168 -2.77682 -0 0 0 -0 0 0 2.41671e-013 1.89188e-013 -3.56073e-013 76.3974 -8.13012 19.9846 -25.5445 -22.3176 54.9529 -4.69106 -50.6922 -9.88433 -2.00441e-010 7.44136e-010 6.43032e-010 -3.73329e-010 1.43955e-009 1.09085e-009 -2.00439e-010 7.44135e-010 6.43032e-010 7.73091 5.47488 0.417314 -2.00443e-010 7.44136e-010 6.43035e-010 2.90554 0.965183 0.102902 -2.00442e-010 7.44136e-010 6.43033e-010 10.2786 0.731801 0.0259123 -2.00449e-010 7.44137e-010 6.43045e-010 2.22167 -0.733487 -0.20892 2.41739e-013 1.89298e-013 -3.56322e-013 -37.0752 -22.9874 -37.7574 22.8311 -50.773 -106.795 1.25944 30.1243 -4.67757 -4.06956e-009 -1.65686e-008 2.65254e-009 -6.98458e-009 -2.87536e-008 4.68553e-009 -4.06957e-009 -1.65685e-008 2.65254e-009 -7.73091 5.47488 -0.417314 -4.06956e-009 -1.65685e-008 2.65254e-009 -2.90554 0.965183 -0.102902 -4.06957e-009 -1.65686e-008 2.65255e-009 -10.2786 0.731801 -0.0259123 -4.06956e-009 -1.65686e-008 2.65254e-009 -2.22167 -0.733487 0.20892 -2.03217e-016 0 -3.88251e-019 -147.802 -70.5234 -120.78 176.442 80.3529 -160.444 -179.433 41.6436 -174.685 2.03217e-016 0 3.88251e-019 8.76558 -50.8389 3.45181 1.60238 46.8123 4.60826 -0.231197 4.32315 -0.0350168 
36.6443 36.1467 52.506 -0.718516 -2.10515 133.05 13.2979 31.7431 15.9846 19.4184 -6.7344 4.4596 -1.04152 5.48718 1.79492 -10.3904 -49.0637 -2.79024 -0 0 0 -0 0 0 1.11391e-013 -1.08611e-013 -1.53101e-013 76.383 -8.31454 20.1821 -25.6333 -22.5277 55.2962 -4.69306 -50.6993 -9.88689 7.77818e-010 -7.44121e-010 1.89017e-009 1.26167e-009 -1.09597e-009 3.2801e-009 7.77821e-010 -7.44122e-010 1.89017e-009 7.73091 5.47488 0.417314 7.77817e-010 -7.44121e-010 1.89017e-009 2.90554 0.965183 0.102902 7.7782e-010 -7.44121e-010 1.89017e-009 10.2786 0.731801 0.0259123 7.77811e-010 -7.44119e-010 1.89018e-009 2.22167 -0.733487 -0.20892 1.11471e-013 -1.08511e-013 -1.5335e-013 -37.0686 -23.2499 -38.0368 22.87 -50.731 -106.684 1.25565 30.0833 -4.66988 -3.87127e-009 -1.32526e-008 1.48142e-009 -6.66759e-009 -2.30802e-008 2.65808e-009 -3.87128e-009 -1.32526e-008 1.48142e-009 -7.73091 5.47488 -0.417314 -3.87127e-009 -1.32526e-008 1.48142e-009 -2.90554 0.965183 -0.102902 -3.87128e-009 -1.32526e-008 1.48142e-009 -10.2786 0.731801 -0.0259123 -3.87127e-009 -1.32526e-008 1.48141e-009 -2.22167 -0.733487 0.20892 -2.03217e-016 0 -3.88251e-019 -149.112 -70.1973 -121.887 176.368 80.6603 -160.473 -179.682 41.6325 -174.335 2.03217e-016 0 3.88251e-019 8.9848 -51.13 3.83787 1.59339 46.3261 4.7111 -0.25283 4.36756 -0.0323391 
36.6047 35.9179 52.56 -0.497847 -2.29977 133.323 12.7931 32.0235 16.4873 19.4571 -6.74418 4.51067 -1.35549 5.65962 1.82453 -10.3329 -49.6658 -2.76464 -0 0 0 -0 0 0 -7.81685e-014 -5.29994e-013 1.52847e-013 76.3622 -8.55124 20.3681 -25.7183 -22.7323 55.6265 -4.7083 -50.7545 -9.90657 2.0786e-009 -2.78742e-009 3.4366e-009 3.44054e-009 -4.59237e-009 5.99918e-009 2.0786e-009 -2.78742e-009 3.4366e-009 7.73091 5.47488 0.417314 2.0786e-009 -2.78742e-009 3.4366e-009 2.90554 0.965183 0.102902 2.0786e-009 -2.78742e-009 3.4366e-009 10.2786 0.731801 0.0259123 2.07859e-009 -2.78742e-009 3.43661e-009 2.22167 -0.733487 -0.20892 -7.80818e-014 -5.29925e-013 1.52598e-013 -37.1052 -23.478 -38.3787 22.9172 -50.6797 -106.548 1.25944 30.1233 -4.67744 -3.2377e-009 -7.30991e-009 -3.24473e-010 -5.61117e-009 -1.28747e-008 -4.76797e-010 -3.2377e-009 -7.3099e-009 -3.24473e-010 -7.73091 5.47488 -0.417314 -3.23769e-009 -7.30992e-009 -3.24476e-010 -2.90554 0.965183 -0.102902 -3.23771e-009 -7.30991e-009 -3.24474e-010 -10.2786 0.731801 -0.0259123 -3.2377e-009 -7.30991e-009 -3.24482e-010 -2.22167 -0.733487 0.20892 -2.03217e-016 0 -3.88251e-019 -150.648 -69.9231 -123.234 176.286 80.9384 -160.478 179.993 41.5586 -173.859 2.03217e-016 0 3.88251e-019 9.30167 -51.3585 4.32946 1.59354 45.945 4.8294 -0.294759 4.39995 -0.026442 
36.5565 35.6177 52.7482 -0.295546 -2.50246 133.597 12.3027 32.2672 16.9785 19.5019 -6.74661 4.56243 -1.67613 5.83554 1.85552 -10.2656 -50.302 -2.74038 -0 0 0 -0 0 0 -2.56491e-013 -9.20959e-013 4.44877e-013 76.351 -8.79221 20.5572 -25.7848 -22.8947 55.8893 -4.73383 -50.8467 -9.93951 3.25019e-009 -4.65189e-009 4.74961e-009 5.4063e-009 -7.78967e-009 8.31097e-009 3.25019e-009 -4.65189e-009 4.74962e-009 7.73091 5.47488 0.417314 3.25019e-009 -4.65189e-009 4.74962e-009 2.90554 0.965183 0.102902 3.2502e-009 -4.65189e-009 4.74962e-009 10.2786 0.731801 0.0259123 3.25019e-009 -4.65188e-009 4.74964e-009 2.22167 -0.733487 -0.20892 -2.56408e-013 -9.20929e-013 4.44628e-013 -37.1344 -23.7092 -38.703 22.9672 -50.6247 -106.404 1.26408 30.1727 -4.68672 -2.52822e-009 -1.43241e-009 -2.02519e-009 -4.42101e-009 -2.77037e-009 -3.43207e-009 -2.52822e-009 -1.4324e-009 -2.02519e-009 -7.73091 5.47488 -0.417314 -2.52821e-009 -1.43244e-009 -2.02519e-009 -2.90554 0.965183 -0.102902 -2.52822e-009 -1.43241e-009 -2.02519e-009 -10.2786 0.731801 -0.0259123 -2.52822e-009 -1.43241e-009 -2.0252e-009 -2.22167 -0.733487 0.20892 -2.03217e-016 0 -3.88251e-019 -152.128 -69.6513 -124.543 176.202 81.1754 -160.455 179.675 41.4456 -173.381 2.03217e-016 0 3.88251e-019 9.61216 -51.5561 4.81276 1.59907 45.6541 4.94456 -0.342247 4.42284 -0.0195796 
36.6267 35.4697 52.6127 -0.13662 -2.70737 133.808 11.9274 32.437 17.3366 19.5017 -6.74298 4.59056 -1.87387 6.03539 1.90305 -10.3078 -50.9513 -2.75991 -0 0 0 -0 0 0 -3.5306e-013 -1.12751e-012 6.06094e-013 76.3648 -8.98955 20.7635 -25.8193 -22.9797 56.0293 -4.7667 -50.965 -9.9819 3.84089e-009 -5.60364e-009 5.29652e-009 6.40197e-009 -9.4279e-009 9.27834e-009 3.84089e-009 -5.60364e-009 5.29652e-009 7.73091 5.47488 0.417314 3.84088e-009 -5.60364e-009 5.29653e-009 2.90554 0.965183 0.102902 3.8409e-009 -5.60364e-009 5.29653e-009 10.2786 0.731801 0.0259123 3.84088e-009 -5.60364e-009 5.29654e-009 2.22167 -0.733487 -0.20892 -3.52996e-013 -1.12751e-012 6.05846e-013 -37.1045 -23.9825 -38.93 23.0146 -50.5723 -106.266 1.26276 30.1594 -4.68418 -2.10221e-009 1.6878e-009 -2.88079e-009 -3.7028e-009 2.59954e-009 -4.92072e-009 -2.10221e-009 1.68781e-009 -2.88078e-009 -7.73091 5.47488 -0.417314 -2.1022e-009 1.68777e-009 -2.88079e-009 -2.90554 0.965183 -0.102902 -2.10221e-009 1.6878e-009 -2.88079e-009 -10.2786 0.731801 -0.0259123 -2.10221e-009 1.68781e-009 -2.8808e-009 -2.22167 -0.733487 0.20892 -2.03217e-016 0 -3.88251e-019 -153.277 -69.3412 -125.534 176.12 81.3592 -160.398 179.443 41.3189 -173.022 2.03217e-016 0 3.88251e-019 9.81107 -51.7565 5.17313 1.6058 45.4385 5.03833 -0.380556 4.43872 -0.0140062 
36.6426 35.3242 52.6982 -0.0254024 -2.92756 133.94 11.6806 32.5179 17.5148 19.4332 -6.72797 4.57947 -1.89352 6.27637 1.98233 -10.5194 -51.6394 -2.836 -0 0 0 -0 0 0 -3.22946e-013 -1.05427e-012 5.67066e-013 76.4076 -9.12527 21.0298 -25.8045 -22.943 55.9699 -4.8183 -51.1493 -10.0483 3.55263e-009 -5.17389e-009 4.64724e-009 5.93121e-009 -8.70629e-009 8.14768e-009 3.55263e-009 -5.17389e-009 4.64723e-009 7.73091 5.47488 0.417314 3.55263e-009 -5.17389e-009 4.64724e-009 2.90554 0.965183 0.102902 3.55264e-009 -5.17389e-009 4.64724e-009 10.2786 0.731801 0.0259123 3.55263e-009 -5.17389e-009 4.64726e-009 2.22167 -0.733487 -0.20892 -3.2293e-013 -1.05429e-012 5.66818e-013 -36.9865 -24.3173 -39.0016 23.0528 -50.5294 -106.155 1.25412 30.0681 -4.66697 -2.13786e-009 5.0382e-010 -2.43809e-009 -3.75489e-009 5.76601e-010 -4.15574e-009 -2.13786e-009 5.03821e-010 -2.43808e-009 -7.73091 5.47488 -0.417314 -2.13785e-009 5.03786e-010 -2.43809e-009 -2.90554 0.965183 -0.102902 -2.13786e-009 5.03824e-010 -2.43809e-009 -10.2786 0.731801 -0.0259123 -2.13786e-009 5.03825e-010 -2.4381e-009 -2.22167 -0.733487 0.20892 -2.03217e-016 0 -3.88251e-019 -154.05 -68.9582 -126.161 176.061 81.5016 -160.357 179.293 41.1931 -172.787 2.03217e-016 0 3.88251e-019 9.86005 -51.9956 5.38814 1.6101 45.2659 5.10919 -0.404645 4.45167 -0.0105203 
36.691 35.2415 52.6695 0.0499807 -3.16063 134.027 11.5168 32.5334 17.5808 19.3267 -6.70276 4.54517 -1.81161 6.54362 2.08162 -10.831 -52.3669 -2.94844 -0 0 0 -0 0 0 -2.12465e-013 -8.01476e-013 4.0289e-013 76.471 -9.2266 21.3352 -25.7526 -22.8158 55.761 -4.88701 -51.3911 -10.1364 2.68553e-009 -3.84506e-009 3.18188e-009 4.49591e-009 -6.45177e-009 5.5867e-009 2.68553e-009 -3.84506e-009 3.18187e-009 7.73091 5.47488 0.417314 2.68553e-009 -3.84506e-009 3.18188e-009 2.90554 0.965183 0.102902 2.68554e-009 -3.84506e-009 3.18188e-009 10.2786 0.731801 0.0259123 2.68553e-009 -3.84506e-009 3.1819e-009 2.22167 -0.733487 -0.20892 -2.12519e-013 -8.01524e-013 4.02641e-013 -36.8104 -24.692 -38.9724 23.0866 -50.4912 -106.057 1.24173 29.9358 -4.64213 -2.41604e-009 -3.27225e-009 -1.17701e-009 -4.20864e-009 -5.89382e-009 -1.97149e-009 -2.41604e-009 -3.27225e-009 -1.177e-009 -7.73091 5.47488 -0.417314 -2.41604e-009 -3.27228e-009 -1.177e-009 -2.90554 0.965183 -0.102902 -2.41605e-009 -3.27225e-009 -1.17701e-009 -10.2786 0.731801 -0.0259123 -2.41604e-009 -3.27225e-009 -1.17701e-009 -2.22167 -0.733487 0.20892 -2.03217e-016 0 -3.88251e-019 -154.6 -68.5377 -126.574 176.016 81.604 -160.317 179.193 41.0529 -172.62 2.03217e-016 0 3.88251e-019 9.81575 -52.2477 5.51401 1.6139 45.1537 5.16647 -0.422742 4.45921 -0.00785411 
